<svg width="89" height="30" viewBox="0 0 89 30" fill="none" xmlns="http://www.w3.org/2000/svg">
<path d="M8.27884 0H0V29.5275H8.27884V0Z" fill="#0F0F0F"/>
<path d="M10.3484 0H9.31396V29.5275H10.3484V0Z" fill="#0F0F0F"/>
<path d="M12.4183 0H11.3838V29.5275H12.4183V0Z" fill="#0F0F0F"/>
<path d="M14.4896 0H13.4551V29.5275H14.4896V0Z" fill="#0F0F0F"/>
<path d="M77.6164 0H70.3721V29.5275H77.6164V0Z" fill="#0F0F0F"/>
<path d="M79.6849 0H78.6504V29.5275H79.6849V0Z" fill="#0F0F0F"/>
<path d="M83.8245 0H82.79V29.5275H83.8245V0Z" fill="#0F0F0F"/>
<path d="M85.8948 0H84.8604V29.5275H85.8948V0Z" fill="#0F0F0F"/>
<path d="M89.0003 0H87.9658V29.5275H89.0003V0Z" fill="#0F0F0F"/>
<path d="M28.9766 1.84503H30.0126V3.69123H32.0815V1.84503H34.152V0H28.9766V1.84503Z" fill="#0F0F0F"/>
<path d="M55.8827 1.84503H56.9187V3.69123V5.53626V7.38247V9.2275V11.0725H55.8827V12.9187V14.7638V16.61V18.455H56.9187V20.3H55.8827V22.1462V23.9913H57.9532V25.8363H55.8827V27.6825V29.5275H52.7793V27.6825V25.8363V23.9913V22.1462V20.3V18.455V16.61V14.7638V12.9187V11.0725V9.2275V7.38247V5.53626V3.69123V1.84503V0H55.8827V1.84503Z" fill="#0F0F0F"/>
<path d="M54.8484 25.8369H53.814V27.6819H54.8484V25.8369Z" fill="#0F0F0F"/>
<path d="M54.8484 20.3008H53.814V22.147V23.992H54.8484V22.147V20.3008Z" fill="#0F0F0F"/>
<path d="M54.8484 11.0732H53.814V12.9194V14.7645V16.6107V18.4557H54.8484V16.6107V14.7645V12.9194V11.0732Z" fill="#0F0F0F"/>
<path d="M55.8836 3.69141H54.8491V5.53644V7.38264H55.8836V5.53644V3.69141Z" fill="#0F0F0F"/>
<path d="M57.9529 0H56.9185V1.84503H57.9529V0Z" fill="#0F0F0F"/>
<path d="M60.0223 0H58.9878V1.84503H60.0223V0Z" fill="#0F0F0F"/>
<path d="M64.1631 0H61.0581V1.84503H64.1631V0Z" fill="#0F0F0F"/>
<path d="M24.8367 1.84503V0H23.8022V1.84503V3.69123H24.8367V1.84503Z" fill="#0F0F0F"/>
<path d="M26.9075 1.84503V0H25.873V1.84503V3.69123H24.837V5.53626V7.38247H22.7681V9.2275H23.8025V11.0725H22.7681V12.9187V14.7638V16.61H24.837V14.7638H23.8025V12.9187H25.873V11.0725H24.837V9.2275H25.873V7.38247V5.53626H26.9075V7.38247H30.0124V5.53626V3.69123H26.9075V1.84503Z" fill="#0F0F0F"/>
<path d="M61.0584 1.84473H60.0239V3.68976H61.0584V1.84473Z" fill="#0F0F0F"/>
<path d="M23.8025 3.69141H22.7681V5.53761H23.8025V3.69141Z" fill="#0F0F0F"/>
<path d="M22.7684 5.53613H21.7339V7.38116H22.7684V5.53613Z" fill="#0F0F0F"/>
<path d="M62.0924 7.38217H63.1268V9.2272H64.1613V11.0722H65.1973V12.9184H63.1268V14.7635H60.0234V16.6097H61.0579V18.4547H58.9874V16.6097H57.9529V14.7635H56.9185V12.9184H57.9529V11.0722V9.2272V7.38217V5.53596V3.69093V1.84473H58.9874V3.69093V5.53596H62.0924V7.38217Z" fill="#0F0F0F"/>
<path d="M62.0926 11.0732H61.0581V12.9194H62.0926V11.0732Z" fill="#0F0F0F"/>
<path d="M60.0238 7.38281H58.9878V9.22784V11.0729H60.0238V9.22784V7.38281Z" fill="#0F0F0F"/>
<path d="M68.3016 5.53596H67.2672V3.69093H65.1982V1.84473H64.1622V3.69093H62.0933V5.53596H63.1277V7.38217H66.2327V9.2272H68.3016V11.0722H69.3376V9.2272V7.38217H68.3016V5.53596Z" fill="#0F0F0F"/>
<path d="M31.0462 7.38281H30.0117V9.22784H31.0462V7.38281Z" fill="#0F0F0F"/>
<path d="M22.7681 9.2275V11.0725H20.6977V12.9187H21.7337V14.7638H20.6977V16.61H19.6632V14.7638H18.6287V16.61H19.6632V18.455V20.3V22.1462V23.9913H20.6977V22.1462V20.3V18.455V16.61H21.7337V18.455V20.3V22.1462V23.9913V25.8363V27.6825H19.6632V29.5275H17.5942V27.6825V25.8363V23.9913V22.1462V20.3V18.455V16.61V14.7638V12.9187V11.0725V9.2275V7.38247V5.53626V3.69123V1.84503V0H22.7681V1.84503V3.69123H21.7337V5.53626H20.6977V3.69123H19.6632V5.53626H20.6977V7.38247H19.6632V9.2275H20.6977V7.38247H21.7337V9.2275H22.7681Z" fill="#0F0F0F"/>
<path d="M19.6619 11.0732H18.6274V12.9194H19.6619V11.0732Z" fill="#0F0F0F"/>
<path d="M28.9785 9.22754H25.8735V11.0726H28.9785V9.22754Z" fill="#0F0F0F"/>
<path d="M34.1507 9.22754H33.1162V11.0726H34.1507V9.22754Z" fill="#0F0F0F"/>
<path d="M32.0815 11.0732H28.9766V12.9194H32.0815V11.0732Z" fill="#0F0F0F"/>
<path d="M27.9417 14.763H26.9072V12.918H25.8727V14.763V16.6092H24.8367V18.4542H23.8022V20.2993H24.8367V22.1455H25.8727V20.2993H26.9072V18.4542H27.9417V16.6092H28.9761V18.4542H30.0121V20.2993H27.9417V22.1455H28.9761V23.9905H31.0466V22.1455H33.1171V20.2993H31.0466V18.4542H33.1171V16.6092H31.0466V14.763H28.9761V12.918H27.9417V14.763Z" fill="#0F0F0F"/>
<path d="M64.1619 16.6092V18.4542H66.2324V16.6092H68.3013V14.763H69.3373V12.918H66.2324V14.763H63.1274V16.6092H64.1619Z" fill="#0F0F0F"/>
<path d="M58.9871 18.4541H57.9526V20.3003H58.9871V18.4541Z" fill="#0F0F0F"/>
<path d="M61.0583 20.3008H58.9878V22.147H60.0238V23.992H62.0927V22.147H61.0583V20.3008Z" fill="#0F0F0F"/>
<path d="M64.1615 20.2991V18.4541H61.0581V20.2991H62.0926V22.1453H66.232V23.9904V25.8354H64.1615V27.6816V29.5266H67.2665V27.6816H69.337V25.8354H68.301V23.9904V22.1453H67.2665V20.2991H69.337V18.4541H66.232V20.2991H64.1615Z" fill="#0F0F0F"/>
<path d="M27.9422 22.1465H26.9077V23.9915V25.8365H27.9422V23.9915V22.1465Z" fill="#0F0F0F"/>
<path d="M60.0223 23.9912H58.9878V25.8362H60.0223V23.9912Z" fill="#0F0F0F"/>
<path d="M64.1619 23.9912H63.1274V25.8362H64.1619V23.9912Z" fill="#0F0F0F"/>
<path d="M23.8025 25.8362V23.9912H22.7681V25.8362V27.6824H23.8025V25.8362Z" fill="#0F0F0F"/>
<path d="M27.9422 25.8362V27.6824H26.9077V29.5275H30.0127V27.6824H32.0816V25.8362V23.9912H31.0471V25.8362H27.9422Z" fill="#0F0F0F"/>
<path d="M34.1507 25.8369H33.1162V27.6819H34.1507V25.8369Z" fill="#0F0F0F"/>
<path d="M41.3929 0H40.3584V1.84503H41.3929V0Z" fill="#0F0F0F"/>
<path d="M46.5691 1.84503H47.6036V0H45.5346V1.84503H43.4642V3.69123H42.4297V5.53626V7.38247H45.5346V5.53626H46.5691V3.69123V1.84503Z" fill="#0F0F0F"/>
<path d="M49.673 1.84473H47.604V3.68976H49.673V1.84473Z" fill="#0F0F0F"/>
<path d="M50.709 3.69093V5.53596H51.7435V3.69093V1.84473H50.709V3.69093Z" fill="#0F0F0F"/>
<path d="M41.3929 3.69141H40.3584V5.53761H41.3929V3.69141Z" fill="#0F0F0F"/>
<path d="M46.5687 7.38234V9.22737V11.0724H47.6031V12.9186H48.6376V11.0724H49.6736V12.9186H48.6376V14.7636H45.5342V16.6098H46.5687V18.4549V20.2999V22.1461H49.6736V23.9911H51.7426V22.1461H50.7081V20.2999H48.6376V18.4549H47.6031V16.6098H49.6736V14.7636H50.7081V12.9186H51.7426V11.0724H50.7081V9.22737H49.6736V7.38234H50.7081V5.53613H46.5687V7.38234Z" fill="#0F0F0F"/>
<path d="M41.3955 9.22784V11.0729V12.9191H42.43V11.0729H43.4645V9.22784H42.43V7.38281H41.3955V9.22784Z" fill="#0F0F0F"/>
<path d="M51.7435 7.38281H50.709V9.22784H51.7435V7.38281Z" fill="#0F0F0F"/>
<path d="M39.3258 9.22754H37.2568V11.0726H39.3258V9.22754Z" fill="#0F0F0F"/>
<path d="M45.5335 12.918H44.499V14.763H45.5335V12.918Z" fill="#0F0F0F"/>
<path d="M39.325 16.61H38.2905V18.455V20.3H37.256V22.1462H36.22V23.9913V25.8363V27.6825H37.256V29.5275H35.1855V27.6825V25.8363V23.9913V22.1462V20.3V18.455V16.61V14.7638V12.9187V11.0725V9.2275V7.38247V5.53626V3.69123V1.84503V0H37.256V1.84503H38.2905V0H39.325V1.84503H40.3594V3.69123H39.325V5.53626V7.38247H38.2905V5.53626H37.256V7.38247V9.2275H36.22V11.0725H37.256V12.9187H40.3594V14.7638H39.325V16.61Z" fill="#0F0F0F"/>
<path d="M37.2557 16.6099V14.7637H36.2197V16.6099V18.4549H37.2557V16.6099Z" fill="#0F0F0F"/>
<path d="M41.3955 14.763V16.6092H43.4645V14.763V12.918H42.43V14.763H41.3955Z" fill="#0F0F0F"/>
<path d="M42.4292 18.4554V20.3004H43.4636V22.1466V23.9916H40.3587V22.1466H41.3947V20.3004V18.4554H40.3587V20.3004H39.3242V22.1466V23.9916V25.8367V27.6829H41.3947V29.5279H42.4292V27.6829H43.4636V25.8367H44.4981V23.9916H45.5341V22.1466H44.4981V20.3004H45.5341V18.4554H44.4981V16.6104H43.4636V18.4554H42.4292Z" fill="#0F0F0F"/>
<path d="M38.2913 23.9912H37.2568V25.8362H38.2913V23.9912Z" fill="#0F0F0F"/>
<path d="M47.604 25.8362V27.6824V29.5275H49.6745V27.6824H48.6385V25.8362H49.6745V23.9912H47.604V25.8362Z" fill="#0F0F0F"/>
<path d="M45.5342 27.6831V29.5281H46.5687V27.6831V25.8369H45.5342V27.6831Z" fill="#0F0F0F"/>
<path d="M63.1271 25.8369H61.0581V27.6819H63.1271V25.8369Z" fill="#0F0F0F"/>
<path d="M22.7684 27.6816H21.7339V29.5278H22.7684V27.6816Z" fill="#0F0F0F"/>
<path d="M25.8712 27.6816H23.8022V29.5278H25.8712V27.6816Z" fill="#0F0F0F"/>
<path d="M58.9871 27.6816H57.9526V29.5278H58.9871V27.6816Z" fill="#0F0F0F"/>
<path d="M61.0584 27.6816H60.0239V29.5278H61.0584V27.6816Z" fill="#0F0F0F"/>
</svg>
