<svg width="30" height="32" viewBox="0 0 30 32" fill="currentColor" xmlns="http://www.w3.org/2000/svg">
<path d="M1.77046 11.52L4.6204 6.58489C4.95955 6.00596 5.43921 5.52152 6.0152 5.17619C6.59119 4.83086 7.24499 4.63576 7.91636 4.60884C8.58774 4.58192 9.25511 4.72406 9.857 5.02217C10.4589 5.32027 10.9759 5.76475 11.3605 6.31467L13.8257 2.048C14.3563 1.13301 15.2285 0.465127 16.2514 0.190573C17.2743 -0.0839812 18.3645 0.0571658 19.2833 0.583111C19.8554 0.920158 20.3389 1.38814 20.6941 1.94844C21.1627 1.52921 21.7243 1.227 22.3328 1.06667C22.8371 0.925895 23.3649 0.888605 23.8841 0.957049C24.4033 1.02549 24.9032 1.19825 25.3537 1.46489C25.8086 1.72439 26.2075 2.07107 26.5277 2.48498C26.8479 2.8989 27.0829 3.37189 27.2193 3.87677C27.3557 4.38165 27.3907 4.90846 27.3225 5.42691C27.2542 5.94536 27.0839 6.44523 26.8214 6.89778L26.3369 7.72267C26.9293 7.77313 27.5033 7.95277 28.0184 8.24889C28.9289 8.78074 29.5923 9.64974 29.8645 10.667C30.1366 11.6843 29.9955 12.7677 29.4719 13.6818L23.487 24.0356C22.6766 25.4834 21.5859 26.7561 20.2783 27.7796C18.9708 28.8032 17.4725 29.5571 15.8704 29.9976C14.2684 30.4382 12.5948 30.5562 10.9469 30.3448C9.29898 30.1334 7.71006 29.597 6.27305 28.7671C4.83604 27.9372 3.57976 26.8311 2.57759 25.5109C1.57541 24.1908 0.846889 22.6837 0.432784 21.0775C0.0186782 19.4713 -0.0719556 17.7979 0.166527 16.1564C0.405009 14.5148 0.967386 12.9379 1.82156 11.52H1.77046ZM2.72519 20.4231C3.06609 21.7032 3.65366 22.9029 4.45413 23.9553C5.25461 25.0077 6.25202 25.8919 7.39031 26.5592C8.52859 27.2265 9.78574 27.664 11.0916 27.8474C12.3975 28.0308 13.7268 27.9567 15.0034 27.6296C16.2799 27.3025 17.4788 26.7287 18.5336 25.9407C19.5883 25.1526 20.4778 24.1661 21.1516 23.0374C21.8254 21.9088 22.2702 20.6599 22.4611 19.3606C22.652 18.0614 22.5853 16.7377 22.265 15.4631L22.251 15.4187L22.2379 15.3662L22.0815 14.8018L22.0532 14.6878C21.6911 13.3621 21.0632 12.1267 20.2097 11.0563C19.3563 9.98579 18.2957 9.10294 17.0951 8.46044C15.8944 7.81793 14.5777 7.42929 13.2234 7.31829C11.869 7.2073 10.5057 7.37634 9.21459 7.81565C7.92345 8.25497 6.73207 8.95533 5.71081 9.8736C4.68956 10.7919 3.85952 11.9094 3.27046 13.1577C2.68139 14.406 2.34587 15.7591 2.28307 17.1388C2.22026 18.5185 2.43148 19.8967 2.90306 21.1928L2.72519 20.4231ZM20.6513 31.5164C20.7589 31.6652 20.9002 31.7865 21.0636 31.8705C21.227 31.9546 21.408 31.9989 21.5918 32C21.8248 31.9972 22.0522 31.9281 22.2473 31.8009C24.3199 30.3716 26.0439 28.4954 27.2917 26.3111C27.3809 26.1819 27.4424 26.0357 27.4722 25.8817C27.5021 25.7276 27.4998 25.5691 27.4653 25.416C27.4309 25.2629 27.3651 25.1186 27.272 24.9921C27.179 24.8657 27.0608 24.7597 26.9248 24.681C26.7888 24.6024 26.638 24.5526 26.4818 24.5349C26.3256 24.5172 26.1674 24.5319 26.0172 24.5781C25.8669 24.6244 25.7279 24.7011 25.6088 24.8035C25.4898 24.906 25.3932 25.0319 25.3252 25.1733C24.2363 27.0642 22.7366 28.6874 20.9363 29.9236C20.6886 30.0984 20.5198 30.3635 20.4664 30.6617C20.4131 30.9598 20.4795 31.2668 20.6513 31.5164ZM9.2088 1.13778C9.2088 0.836019 9.0887 0.546622 8.87491 0.333247C8.66113 0.119873 8.37117 0 8.06883 0C6.56767 0.00191377 5.09329 0.396965 3.79301 1.14568C2.49273 1.8944 1.41206 2.97057 0.658988 4.26667C0.583263 4.39602 0.53422 4.53918 0.514745 4.68772C0.495271 4.83627 0.505757 4.9872 0.545588 5.13164C0.58542 5.27609 0.653792 5.41112 0.746681 5.5288C0.839571 5.64648 0.955102 5.74443 1.08648 5.81689C1.25663 5.92451 1.4551 5.97898 1.65647 5.97333C1.85589 5.97263 2.05164 5.91973 2.22418 5.8199C2.39671 5.72007 2.53998 5.57682 2.63969 5.40444C3.18993 4.45325 3.98131 3.66335 4.93431 3.11412C5.88731 2.56489 6.96836 2.27568 8.06883 2.27556C8.37117 2.27556 8.66113 2.15568 8.87491 1.94231C9.0887 1.72893 9.2088 1.43954 9.2088 1.13778Z"/>
</svg>
