<svg height="100%" viewBox="0 0 228 24" fill="currentColor" xmlns="http://www.w3.org/2000/svg">
  <circle cx="2.99987" cy="2.99987" r="2.99987" fill="currentColor"/>
  <circle cx="2.99987" cy="20.9999" r="2.99987" fill="currentColor"/>
  <circle cx="11.9995" cy="20.9999" r="2.99987" fill="currentColor"/>
  <circle cx="26.9985" cy="20.9999" r="2.99987" fill="currentColor"/>
  <circle cx="35.9986" cy="20.9999" r="2.99987" fill="currentColor"/>
  <circle cx="50.9977" cy="20.9999" r="2.99987" fill="currentColor"/>
  <circle cx="121.495" cy="20.9999" r="2.99987" fill="currentColor"/>
  <circle cx="145.494" cy="20.9999" r="2.99987" fill="currentColor"/>
  <circle cx="169.493" cy="20.9999" r="2.99987" fill="currentColor"/>
  <circle cx="193.492" cy="20.9999" r="2.99987" fill="currentColor"/>
  <circle cx="217.491" cy="20.9999" r="2.99987" fill="currentColor"/>
  <circle cx="11.9995" cy="11.9999" r="2.99987" fill="currentColor"/>
  <circle cx="26.9985" cy="11.9999" r="2.99987" fill="currentColor"/>
  <circle cx="50.9977" cy="11.9999" r="2.99987" fill="currentColor"/>
  <circle cx="59.9973" cy="11.9999" r="2.99987" fill="currentColor"/>
  <circle cx="74.9964" cy="11.9999" r="2.99987" fill="currentColor"/>
  <circle cx="83.996" cy="11.9999" r="2.99987" fill="currentColor"/>
  <circle cx="107.995" cy="11.9999" r="2.99987" fill="currentColor"/>
  <circle cx="121.495" cy="11.9999" r="2.99987" fill="currentColor"/>
  <circle cx="130.494" cy="11.9999" r="2.99987" fill="currentColor"/>
  <circle cx="145.494" cy="11.9999" r="2.99987" fill="currentColor"/>
  <circle cx="178.492" cy="11.9999" r="2.99987" fill="currentColor"/>
  <circle cx="193.492" cy="11.9999" r="2.99987" fill="currentColor"/>
  <circle cx="202.491" cy="11.9999" r="2.99987" fill="currentColor"/>
  <circle cx="217.491" cy="11.9999" r="2.99987" fill="currentColor"/>
  <circle cx="226.49" cy="11.9999" r="2.99987" fill="currentColor"/>
  <circle cx="35.9986" cy="2.99987" r="2.99987" fill="currentColor"/>
  <circle cx="59.9973" cy="2.99987" r="2.99987" fill="currentColor"/>
  <circle cx="83.996" cy="2.99987" r="2.99987" fill="currentColor"/>
  <circle cx="98.9955" cy="2.99987" r="2.99987" fill="currentColor"/>
  <circle cx="130.494" cy="2.99987" r="2.99987" fill="currentColor"/>
  <circle cx="154.493" cy="2.99987" r="2.99987" fill="currentColor"/>
  <circle cx="169.493" cy="2.99987" r="2.99987" fill="currentColor"/>
  <circle cx="202.491" cy="2.99987" r="2.99987" fill="currentColor"/>
  <circle cx="226.49" cy="2.99987" r="2.99987" fill="currentColor"/>
</svg>
